<?xml version="1.0" encoding="iso-8859-1"?>
<!-- Generator: Adobe Illustrator 16.0.0, SVG Export Plug-In . SVG Version: 6.00 Build 0)  -->
<!DOCTYPE svg PUBLIC "-//W3C//DTD SVG 1.1//EN" "http://www.w3.org/Graphics/SVG/1.1/DTD/svg11.dtd">
<svg xmlns="http://www.w3.org/2000/svg" xmlns:xlink="http://www.w3.org/1999/xlink" version="1.1" id="Capa_1" x="0px" y="0px" width="512px" height="512px" viewBox="0 0 31.323 31.322" style="enable-background:new 0 0 31.323 31.322;" xml:space="preserve">
<g>
	<g>
		<path d="M19.224,8.009c-0.111,0-0.22,0.01-0.327,0.023c0.126,0.143,0.205,0.32,0.205,0.516c0,0.465-0.428,0.842-0.952,0.842    c-0.37,0-0.688-0.189-0.847-0.464c-0.237,0.32-0.377,0.702-0.377,1.113c0,1.122,1.029,2.031,2.298,2.031    c1.27,0,2.3-0.909,2.3-2.031S20.494,8.009,19.224,8.009z" fill="#39669e"/>
		<path d="M11.415,12.08c1.275,0,2.311-0.913,2.311-2.041s-1.036-2.041-2.311-2.041c-0.242,0-0.477,0.032-0.696,0.095    c0.096,0.132,0.154,0.287,0.154,0.455c0,0.465-0.426,0.842-0.952,0.842c-0.232,0-0.441-0.076-0.606-0.198    c-0.134,0.259-0.21,0.544-0.21,0.848C9.104,11.167,10.139,12.08,11.415,12.08z" fill="#39669e"/>
		<path d="M23.17,13.652c0,0-0.086,0.067-0.229,0.193c0.447-0.803,0.695-1.729,0.695-2.769c0-1.59-0.31-2.721-1.293-3.916    c0.197-0.208,0.32-0.474,0.406-0.754l0.094-0.027V5.987c0.084-0.55,0.045-1.098,0-1.422V1.498h1.688V4.96h-0.843v2.929h2.625V4.96    H25.75V1.498h1.032V0H3.901v1.498h3.47V6.38l0.875,0.244c0.081,0.196,0.18,0.384,0.325,0.537    c-0.983,1.195-1.293,2.326-1.293,3.916c0,1.131,0.293,2.127,0.815,2.979c-0.039,0.06-0.08,0.119-0.117,0.181    c-1.195,0.354-4.599,1.832-3.26,6.998c1.61,6.223,6.145,8.826,6.145,8.826s0.17-0.252,0.406-0.722    c0.167,1.117,1.299,1.983,2.67,1.983c0.981,0,1.84-0.446,2.312-1.108c0.494,0.493,1.232,0.81,2.06,0.81    c1.485,0,2.694-1.019,2.694-2.269c0-0.021-0.004-0.041-0.004-0.063c0.34,0.632,0.596,0.974,0.596,0.974s4.38-2.802,5.636-9.087    C28.484,14.292,23.17,13.652,23.17,13.652z M22.653,10.039c0,1.67-1.538,3.029-3.429,3.029c-1.892,0-3.428-1.359-3.428-3.029    c0-0.662,0.25-1.27,0.658-1.769l3.766-1.115C21.624,7.536,22.653,8.678,22.653,10.039z M15.342,8.6l0.152-0.046    C15.461,8.62,15.42,8.683,15.39,8.751c-0.024-0.057-0.06-0.107-0.087-0.162L15.342,8.6z M15.438,11.518    c0.783,0.046,0.846,0.794,0.846,0.794l-0.811,0.936l-0.976-0.936C14.498,12.312,14.653,11.473,15.438,11.518z M21.822,6.777    l-0.264,0.28c-0.115-0.071-0.24-0.129-0.364-0.19l0.695-0.205C21.865,6.697,21.851,6.745,21.822,6.777z M9.421,6.95    C9.384,6.97,9.344,6.985,9.308,7.006l-0.11-0.117L9.421,6.95z M10.358,7.211l4.026,1.122c0.377,0.486,0.6,1.073,0.6,1.706    c0,1.67-1.538,3.029-3.428,3.029c-1.891,0-3.429-1.359-3.429-3.029C8.128,8.743,9.059,7.643,10.358,7.211z M13.937,30.422    c-0.924,0-1.677-0.613-1.677-1.367c0-0.756,0.753-1.369,1.677-1.369c0.924,0,1.676,0.613,1.676,1.369    C15.613,29.809,14.861,30.422,13.937,30.422z M18.307,30.122c-0.924,0-1.678-0.613-1.678-1.367c0-0.755,0.754-1.369,1.678-1.369    s1.676,0.614,1.676,1.369C19.983,29.509,19.231,30.122,18.307,30.122z M19.301,21.511c-0.051,2.376,0.474,4.347,1.033,5.755    c-0.494-0.478-1.221-0.779-2.027-0.779c-0.982,0-1.842,0.447-2.312,1.108c-0.494-0.493-1.234-0.809-2.059-0.809    c-0.743,0-1.417,0.255-1.904,0.665c0.457-1.419,0.831-3.354,0.652-5.639c-0.188-2.387-1.198-4.254-2.193-5.552    c1.377,0.753,3.098,1.154,4.966,1.159c2.282-0.005,4.344-0.604,5.829-1.711C20.331,17.055,19.357,19.023,19.301,21.511z     M15.458,16.82c-3.83-0.008-6.994-1.787-7.445-4.954c0.714,1.076,2.034,1.803,3.544,1.803c1.126,0,2.146-0.404,2.889-1.054    l0.084,0.079l0.929,1.243l0.934-1.278c0.736,0.624,1.734,1.01,2.833,1.01c1.638,0,3.051-0.854,3.709-2.082    C22.635,14.928,19.399,16.812,15.458,16.82z" fill="#39669e"/>
	</g>
</g>
<g>
</g>
<g>
</g>
<g>
</g>
<g>
</g>
<g>
</g>
<g>
</g>
<g>
</g>
<g>
</g>
<g>
</g>
<g>
</g>
<g>
</g>
<g>
</g>
<g>
</g>
<g>
</g>
<g>
</g>
</svg>
